<svg width="108" height="104" viewBox="0 0 108 104" fill="none" xmlns="http://www.w3.org/2000/svg">
<path d="M51.8326 0.0680461C20.8506 1.6439 -1.33654 24.0998 0.0626435 54.4351C1.46183 84.7703 24.8483 105.076 55.8303 103.5C72.2208 102.712 91.5 93.5 97.5 81.5C103.5 69.5 86.5 59.5 80 67C73.5 74.5 61.7961 77.606 55 78C38.2097 78.7879 27.4467 69.0117 26.6472 52.8592C25.8477 36.9037 36.0418 23.7059 52.832 22.9179C69.2225 22.13 80.416 33.555 81.6153 49.5105C82.4148 56.2079 88.4114 61.3294 95.4073 60.9355C102.403 60.5415 107.8 55.026 108 48.1316C106.401 18.3874 82.4148 -1.31083 51.8326 0.0680461Z" fill="url(#paint0_linear)" fill-opacity="0.8"/>
<defs>
<linearGradient id="paint0_linear" x1="121" y1="147" x2="49.2303" y2="-10.0622" gradientUnits="userSpaceOnUse">
<stop offset="0.322357" stop-color="#F15E60" stop-opacity="0"/>
<stop offset="0.623179" stop-color="#C64F75"/>
<stop offset="1" stop-color="#8C3A92"/>
</linearGradient>
</defs>
</svg>
