<?xml version="1.0" encoding="UTF-8"?><svg id="a" xmlns="http://www.w3.org/2000/svg" viewBox="0 0 287.26 333.96"><polygon points="143.63 3.71 0 84.79 0 192.07 0 238.18 0 246.95 143.63 328.03 287.26 246.95 287.26 224.04 287.26 192.07 287.26 84.79 143.63 3.71" fill="#0f142c"/><g><polygon points="143.5 332.79 -.23 249.81 -.23 189.92 39.77 189.92 39.77 226.72 143.5 286.6 247.22 226.72 247.22 189.92 287.22 189.92 287.22 249.81 143.5 332.79" fill="#f29224"/><polygon points="39.77 145.96 -.23 145.96 -.23 83.85 143.5 .87 287.22 83.85 287.22 133.5 247.22 133.5 247.22 106.95 143.5 47.06 39.77 106.95 39.77 145.96" fill="#f29224"/></g><polygon points="159.16 207.42 107.96 207.42 73.07 164.85 124.28 164.85 159.16 207.42" fill="#f29224"/><polygon points="227.97 117.73 159.88 207.42 108.68 207.42 176.76 117.73 227.97 117.73" fill="#fffffb"/></svg>