<svg xmlns="http://www.w3.org/2000/svg" width="95.46" height="28" viewBox="0 0 95.46 28">
  <g id="logo-temp" transform="translate(-308.922 -439.353)">
    <path id="Path_12" data-name="Path 12" d="M319.711,439.353q5.2,0,5.206,5.541v22.039h-5.877v-9.11H314.8v9.11h-5.877V444.894q0-5.541,5.206-5.541ZM314.8,453.29h4.24v-9.11a.846.846,0,0,0-.231-.588.74.74,0,0,0-.567-.252H315.6a.737.737,0,0,0-.567.252.841.841,0,0,0-.231.588Z" fill="#2541b2"/>
    <path id="Path_13" data-name="Path 13" d="M353.518,466.933h-5.877V444.894q0-5.541,5.206-5.541h3.106a4.8,4.8,0,0,1,4.366,2.014q1.217-2.015,4.366-2.014h3.106q5.2,0,5.206,5.541v22.039H367.12V444.39a.845.845,0,0,0-.231-.588.74.74,0,0,0-.567-.251h-2.267a.737.737,0,0,0-.567.251.841.841,0,0,0-.231.588v22.543H357.38V444.39a.845.845,0,0,0-.231-.588.74.74,0,0,0-.567-.251h-2.267a.736.736,0,0,0-.567.251.841.841,0,0,0-.231.588Z" transform="translate(-18.401)" fill="#2541b2"/>
    <path id="Path_14" data-name="Path 14" d="M409.517,440.152v27.161H403.64V440.152Z" transform="translate(-45.015 -0.38)" fill="#2541b2"/>
    <path id="Path_15" data-name="Path 15" d="M438.7,466.933h-5.877V444.39a.846.846,0,0,0-.231-.588.739.739,0,0,0-.567-.251h-2.267a.737.737,0,0,0-.567.251.84.84,0,0,0-.231.588v22.543h-5.877V444.894q0-5.541,5.205-5.541h5.206q5.2,0,5.206,5.541Z" transform="translate(-54.253)" fill="#2541b2"/>
    <path id="Path_16" data-name="Path 16" d="M476.353,444.894v16.918q0,5.541-5.206,5.541h-5.583q-5.205,0-5.205-5.541V444.894q0-5.541,5.205-5.541h5.583Q476.352,439.353,476.353,444.894Zm-5.877,17.59v-18.3a.844.844,0,0,0-.231-.588.739.739,0,0,0-.567-.252h-2.645a.738.738,0,0,0-.567.252.843.843,0,0,0-.23.588v18.3a.842.842,0,0,0,.23.588.738.738,0,0,0,.567.252h2.645a.739.739,0,0,0,.567-.252A.843.843,0,0,0,470.476,462.483Z" transform="translate(-71.97)" fill="#2541b2"/>
  </g>
</svg>
