<?xml version="1.0" encoding="UTF-8"?><svg xmlns="http://www.w3.org/2000/svg" viewBox="0 0 1129.14 1122.63"><g id="a"/><g id="b"/><g id="c"/><g id="d"/><g id="e"/><g id="f"/><g id="g"><path d="M1102.49,389.91c-17.22-53-42.08-103.93-74.4-149.36-16.97-23.85-35.48-46.74-55.81-67.82-20.4-21.15-42.65-40.06-65.95-57.92-44.37-33.99-93.91-60.12-146.33-79.36-53.89-19.78-111.41-30.36-168.73-32.58-57.86-2.25-116.83,4.82-172.54,20.61-53.65,15.2-105.67,38.68-152.27,69.32-46.3,30.45-88.66,67.43-123.91,110.24-18.51,22.48-35.74,46.07-50.74,71.04-15.28,25.44-27.89,52.14-39.15,79.58-21.77,53.04-33.96,109.46-38.4,166.56-4.51,58.03,.75,117.26,14.47,173.81,13.18,54.33,35.15,107.25,64.12,155.06,28.67,47.31,64.59,90.97,105.99,127.69,41.48,36.79,88.07,68.08,138.64,90.92,27,12.2,54.69,22.84,83.25,30.81,29.42,8.21,59.45,13.4,89.77,16.94,58.14,6.78,117.26,3.33,174.58-8.28,55.05-11.15,108.68-31.51,157.73-58.81,48.34-26.91,93.15-61.6,131.35-101.63,38.12-39.95,70.93-85.79,95.54-135.26,25.21-50.69,43.43-104.89,52-160.9,4.56-29.79,7.42-59.7,7.46-89.86-.08-57.62-8.84-115.95-26.65-170.79Zm-61.04,234.69c-6.08,41.38-17.14,81.9-32.95,120.63-16.34,37.46-37.06,72.87-61.67,105.5-25.2,31.85-54.03,60.68-85.88,85.88-32.62,24.61-68.04,45.33-105.5,61.67-38.72,15.81-79.24,26.87-120.62,32.95-42.43,5.19-85.39,5.19-127.82,0-41.38-6.08-81.9-17.14-120.62-32.95-37.46-16.34-72.87-37.06-105.5-61.67-31.85-25.2-60.68-54.03-85.88-85.88-24.61-32.62-45.33-68.04-61.67-105.49-15.81-38.72-26.87-79.24-32.95-120.62-5.19-42.43-5.19-85.39,0-127.82,6.08-41.38,17.14-81.9,32.95-120.62,16.34-37.46,37.06-72.87,61.67-105.49,25.2-31.85,54.03-60.68,85.88-85.88,32.62-24.61,68.04-45.33,105.49-61.67,38.72-15.81,79.24-26.87,120.62-32.95,42.43-5.19,85.39-5.19,127.82,0,41.38,6.08,81.9,17.14,120.62,32.95,37.46,16.34,72.87,37.06,105.49,61.67,31.85,25.2,60.68,54.03,85.88,85.88,24.61,32.62,45.33,68.04,61.67,105.5,15.81,38.73,26.87,79.24,32.95,120.63,2.59,21.21,3.91,42.54,3.94,63.91-.03,21.37-1.35,42.7-3.94,63.91Z" fill="#fff"/><path d="M507.74,651.96c0-13.94,1.97-26.51,5.97-37.72,3.98-11.18,9.32-21.62,16.05-31.34,6.71-9.69,14.18-18.77,22.38-27.24,8.21-8.44,16.79-16.92,25.75-25.36,6.45-6.47,12.56-12.57,18.28-18.28,5.71-5.74,10.83-11.97,15.31-18.68,4.48-6.71,7.96-14.06,10.45-22.02,2.49-7.96,3.74-17.16,3.74-27.61,0-18.92-5.6-33.71-16.79-44.4-11.21-10.72-26.25-16.07-45.16-16.07-25.37,0-44.92,5.74-58.58,17.16-13.7,11.48-23.52,31.61-29.49,60.46l-96.27-11.93c3.96-21.38,10.19-41.42,18.65-60.07,8.46-18.68,20.03-34.83,34.71-48.53,14.67-13.67,32.84-24.51,54.48-32.46,21.64-7.96,47.39-11.93,77.24-11.93,53.24,0,94.9,12.18,125.01,36.56,30.1,24.39,45.16,57.46,45.16,99.28,0,15.91-1.62,29.85-4.86,41.79s-7.59,22.5-13.06,31.71c-5.48,9.23-11.69,17.55-18.66,25.02-6.97,7.44-14.17,14.91-21.64,22.38-8.96,8.96-17.42,17.43-25.37,25.39-7.97,7.96-14.93,16.03-20.89,24.23-5.98,8.23-10.71,16.67-14.18,25.39-3.49,8.72-5.22,18.28-5.22,28.73v12.69h-103v-17.16Zm-.74,67.15h102.98v118.68h-102.98v-118.68Z" fill="#fff"/></g></svg>