<svg id="Layer_1" data-name="Layer 1" xmlns="http://www.w3.org/2000/svg" xmlns:xlink="http://www.w3.org/1999/xlink" viewBox="0 0 70.074 70.089"><defs><style>.cls-1{fill:url(#New_Gradient_Swatch_1);}</style><linearGradient id="New_Gradient_Swatch_1" x1="71.252" y1="10.618" x2="-1.178" y2="59.472" gradientUnits="userSpaceOnUse"><stop offset="0" stop-color="#f1d961"/><stop offset="1" stop-color="#cda146"/></linearGradient></defs><title>Coin98 Wallet</title><path class="cls-1" d="M23.583,22.011a6.462,6.462,0,1,0,6.462,6.462A6.472,6.472,0,0,0,23.583,22.011Zm0,8.993a2.257,2.257,0,0,1-.754-4.386V24.983h1.509v1.635A2.257,2.257,0,0,1,23.583,31ZM46.49,35.171a6.454,6.454,0,1,0,6.462,6.461A6.46,6.46,0,0,0,46.49,35.171Zm.755,8.647v1.635H45.736V43.818a2.241,2.241,0,0,1-1.51-2.139,2.264,2.264,0,1,1,3.019,2.139Zm-.755-8.647a6.454,6.454,0,1,0,6.462,6.461A6.46,6.46,0,0,0,46.49,35.171Zm.755,8.647v1.635H45.736V43.818a2.241,2.241,0,0,1-1.51-2.139,2.264,2.264,0,1,1,3.019,2.139ZM57.307,0H12.766A12.779,12.779,0,0,0,0,12.782V57.308A12.778,12.778,0,0,0,12.766,70.089H57.307A12.778,12.778,0,0,0,70.074,57.308V12.782A12.779,12.779,0,0,0,57.307,0ZM46.49,17.515a9.384,9.384,0,0,1,9.371,9.37,9.267,9.267,0,0,1-1.148,4.481,12.654,12.654,0,0,0-3.93-2.17,4.941,4.941,0,0,0,.581-2.311,4.874,4.874,0,1,0-9.747,0A4.757,4.757,0,0,0,42.2,29.2a12.654,12.654,0,0,0-3.93,2.17,9.267,9.267,0,0,1-1.148-4.481A9.373,9.373,0,0,1,46.49,17.515ZM23.583,52.575a9.384,9.384,0,0,1-9.37-9.371h4.5a4.874,4.874,0,1,0,9.748,0h4.5A9.374,9.374,0,0,1,23.583,52.575Zm0-13.159A10.951,10.951,0,1,1,34.542,28.473,10.951,10.951,0,0,1,23.583,39.416ZM46.49,52.575A10.951,10.951,0,1,1,57.433,41.632,10.964,10.964,0,0,1,46.49,52.575Zm0-17.4a6.454,6.454,0,1,0,6.462,6.461A6.46,6.46,0,0,0,46.49,35.171Zm.755,8.647v1.635H45.736V43.818a2.241,2.241,0,0,1-1.51-2.139,2.264,2.264,0,1,1,3.019,2.139Zm-.755-8.647a6.454,6.454,0,1,0,6.462,6.461A6.46,6.46,0,0,0,46.49,35.171Zm.755,8.647v1.635H45.736V43.818a2.241,2.241,0,0,1-1.51-2.139,2.264,2.264,0,1,1,3.019,2.139Zm-.755-8.647a6.454,6.454,0,1,0,6.462,6.461A6.46,6.46,0,0,0,46.49,35.171Zm.755,8.647v1.635H45.736V43.818a2.241,2.241,0,0,1-1.51-2.139,2.264,2.264,0,1,1,3.019,2.139Z"/></svg>