<svg xmlns="http://www.w3.org/2000/svg" width="16.977" height="12.939" viewBox="0 0 16.977 12.939"><defs><style>.a{fill:#fff;}</style></defs><path class="a" d="M14.371,1.484A14,14,0,0,0,10.916.413a.052.052,0,0,0-.056.026,9.752,9.752,0,0,0-.43.884,12.924,12.924,0,0,0-3.881,0A8.945,8.945,0,0,0,6.112.439.055.055,0,0,0,6.056.413,13.96,13.96,0,0,0,2.6,1.484a.049.049,0,0,0-.023.02A14.328,14.328,0,0,0,.07,11.167a.058.058,0,0,0,.022.04A14.078,14.078,0,0,0,4.331,13.35a.055.055,0,0,0,.06-.02,10.062,10.062,0,0,0,.867-1.411.054.054,0,0,0-.029-.075A9.271,9.271,0,0,1,3.9,11.213a.054.054,0,0,1-.005-.09c.089-.067.178-.136.263-.206a.053.053,0,0,1,.055-.007,10.039,10.039,0,0,0,8.532,0,.052.052,0,0,1,.056.007c.085.07.174.14.264.207a.054.054,0,0,1,0,.09,8.7,8.7,0,0,1-1.325.631.054.054,0,0,0-.029.075,11.3,11.3,0,0,0,.867,1.41.054.054,0,0,0,.06.02,14.031,14.031,0,0,0,4.246-2.143.054.054,0,0,0,.022-.039A14.234,14.234,0,0,0,14.393,1.5.043.043,0,0,0,14.371,1.484Zm-8.7,7.754A1.632,1.632,0,0,1,4.147,7.527,1.623,1.623,0,0,1,5.673,5.816,1.614,1.614,0,0,1,7.2,7.527,1.623,1.623,0,0,1,5.673,9.238Zm5.641,0A1.632,1.632,0,0,1,9.788,7.527a1.623,1.623,0,0,1,1.526-1.711A1.614,1.614,0,0,1,12.84,7.527,1.618,1.618,0,0,1,11.314,9.238Z" transform="translate(0 -0.412)"/></svg>