<svg xmlns="http://www.w3.org/2000/svg" width="11.64" height="11.117" viewBox="0 0 11.64 11.117"><defs><style>.a{fill:#fff;}</style></defs><path class="a" d="M639.715,292.447v4.114a.184.184,0,0,1-.184.184h-2.124a.184.184,0,0,1-.184-.184v-3.826c0-1.007-.36-1.695-1.262-1.695a1.363,1.363,0,0,0-1.278.911,1.7,1.7,0,0,0-.083.607v4a.184.184,0,0,1-.184.184h-2.123a.183.183,0,0,1-.184-.184c0-1.019.026-5.963,0-7.125a.183.183,0,0,1,.184-.186h2.119a.184.184,0,0,1,.184.184v.878c0,.008-.012.017-.017.025h.017v-.025a2.475,2.475,0,0,1,2.246-1.238c1.639,0,2.869,1.071,2.869,3.373Zm-11.293,4.3h2.124a.184.184,0,0,0,.184-.184v-7.127a.184.184,0,0,0-.184-.184h-2.124a.184.184,0,0,0-.184.184v7.127A.184.184,0,0,0,628.422,296.745Z" transform="translate(-628.075 -285.629)"/><ellipse class="a" cx="1.334" cy="1.334" rx="1.334" ry="1.334"/></svg>