<svg xmlns="http://www.w3.org/2000/svg" xmlns:xlink="http://www.w3.org/1999/xlink" width="64" height="64" viewBox="0 0 64 64"><defs><style>.a{fill:url(#a);}.b{fill:#fdfdfd;}</style><linearGradient id="a" y1="0.5" x2="1" y2="0.5" gradientUnits="objectBoundingBox"><stop offset="0" stop-color="#f15e61"/><stop offset="1" stop-color="#8c3c92"/></linearGradient></defs><g transform="translate(-251.674 21)"><circle class="a" cx="32" cy="32" r="32" transform="translate(251.674 -21)"/><g transform="translate(255.467 -8.362)"><g transform="translate(2.413 1.811)"><path class="b" d="M74.388,78.214c1.183,0,2.088-.626,2.088-1.461V68.261c0-.835-.9-1.461-2.088-1.461s-2.088.626-2.088,1.461v8.491C72.3,77.587,73.274,78.214,74.388,78.214Z" transform="translate(-42.147 -43.11)"/><path class="b" d="M44.581,32.788c-9.326.418-16.007,7.307-15.589,16.633s7.516,15.032,16.842,14.545a13.062,13.062,0,0,0,10.439-5.289l-4.8-3.619a10,10,0,0,1-5.707,2.436c-5.08.278-8.56-3.48-8.769-8.421-.278-5.011,2.784-8.978,7.934-9.256,4.941-.278,8.351,3.271,8.7,8.143h0a3.97,3.97,0,0,0,4.176,3.48,4.072,4.072,0,0,0,3.828-3.9h0C61.075,38.286,53.837,32.3,44.581,32.788Z" transform="translate(-28.973 -32.76)"/><path class="b" d="M60.792,58.99c3.41-3.341,6.611-6.681,9.674-9.813,2.436-2.505,5.707-3.2,9.117-2.993a11.052,11.052,0,0,1,9.882,8.282,15.072,15.072,0,0,1,.278,1.74.256.256,0,0,0,.07.209V57.6a13.357,13.357,0,0,1-.209,1.531,10.677,10.677,0,0,1-5.776,7.934,17.549,17.549,0,0,1-2.3.9,10.734,10.734,0,0,1-10.439-2.575c-.766-.7-1.461-1.392-2.227-2.088a1.974,1.974,0,0,1-.07-2.784,2.087,2.087,0,0,1,2.923-.209l.626.626c.487.487.974.9,1.461,1.392a6.679,6.679,0,0,0,6.89,1.6,6.3,6.3,0,0,0,4.8-5.22c.487-3.967-1.67-7.238-5.707-7.795a6.88,6.88,0,0,0-6.055,2.3c-3.758,3.9-5.568,6.472-8.908,10.439A3.1,3.1,0,0,1,59.4,61.635a3.264,3.264,0,0,1,.766-2.157,1.222,1.222,0,0,1,.348-.278Z" transform="translate(-38.225 -36.831)"/></g></g></g></svg>