<svg xmlns="http://www.w3.org/2000/svg" width="124.188" height="24.22" viewBox="0 0 124.188 24.22"><defs><style>.a,.b{fill:#fdfdfd;}.b{fill-rule:evenodd;}</style></defs><g transform="translate(-28.973 -32.76)"><g transform="translate(66.2 36.477)"><path class="a" d="M106.5,55.4a5.845,5.845,0,0,1,5.954-6c3.409,0,5.762,2.545,5.762,6.338v.672h-8.547a3.083,3.083,0,0,0,3.313,2.641,4.875,4.875,0,0,0,3.073-1.152l1.345,1.969a7.062,7.062,0,0,1-4.706,1.585A5.835,5.835,0,0,1,106.5,55.4Zm5.954-3.6a2.761,2.761,0,0,0-2.833,2.545h5.666A2.693,2.693,0,0,0,112.454,51.8Z" transform="translate(-106.5 -45.126)"/><path class="a" d="M144.131,61.164V54.25c0-1.585-.816-2.161-2.113-2.161a3.218,3.218,0,0,0-2.593,1.345v7.731H136.4V49.688h3.025v1.489a5.325,5.325,0,0,1,4.034-1.777c2.5,0,3.745,1.441,3.745,3.649v8.115h-3.073Z" transform="translate(-122.043 -45.126)"/><path class="a" d="M164,54.329l1.825-2.545a6.956,6.956,0,0,0,5.042,2.161c1.873,0,2.737-.864,2.737-1.777,0-2.785-9.123-.864-9.123-6.867,0-2.641,2.3-4.8,6-4.8a8.964,8.964,0,0,1,6.194,2.209L174.8,45.158a6.736,6.736,0,0,0-4.61-1.729c-1.441,0-2.257.624-2.257,1.585,0,2.5,9.123.816,9.123,6.771,0,2.881-2.065,5.09-6.338,5.09A9.214,9.214,0,0,1,164,54.329Z" transform="translate(-136.39 -40.5)"/><path class="a" d="M204.872,61.476l-2.4-7.827-2.4,7.827h-3.217L193.3,50h3.121l2.161,7.731,2.5-7.731h2.689l2.5,7.731L208.426,50h3.121l-3.505,11.476Z" transform="translate(-151.62 -45.438)"/><path class="a" d="M241.535,61.164v-1.2a4.83,4.83,0,0,1-3.649,1.489,3.827,3.827,0,0,1-3.986-3.793c0-2.689,2.161-3.7,3.986-3.7a4.7,4.7,0,0,1,3.649,1.393V53.818c0-1.152-1.008-1.921-2.5-1.921a4.839,4.839,0,0,0-3.361,1.345l-1.152-2.017a7.467,7.467,0,0,1,4.994-1.825c2.593,0,4.994,1.056,4.994,4.37v7.395Zm0-2.737V56.987a2.949,2.949,0,0,0-2.4-1.008c-1.2,0-2.161.624-2.161,1.729,0,1.056.96,1.681,2.161,1.681A2.784,2.784,0,0,0,241.535,58.427Z" transform="translate(-172.725 -45.126)"/><path class="a" d="M266.325,59.676v5.858H263.3V49.688h3.025v1.441a4.481,4.481,0,0,1,3.553-1.729c2.929,0,5.09,2.209,5.09,6,0,3.841-2.161,6.05-5.09,6.05A4.323,4.323,0,0,1,266.325,59.676ZM271.8,55.4c0-1.969-1.152-3.313-2.881-3.313a3.42,3.42,0,0,0-2.593,1.3v4.082a3.42,3.42,0,0,0,2.593,1.3C270.647,58.764,271.8,57.419,271.8,55.4Z" transform="translate(-188.008 -45.126)"/></g><g transform="translate(28.973 32.76)"><path class="a" d="M73.741,74.675c.816,0,1.441-.432,1.441-1.008V67.808c0-.576-.624-1.008-1.441-1.008s-1.441.432-1.441,1.008v5.858C72.3,74.243,72.972,74.675,73.741,74.675Z" transform="translate(-51.495 -50.455)"/><path class="a" d="M66.5,69.3" transform="translate(-48.48 -51.754)"/><path class="b" d="M75.9,67.7" transform="translate(-53.367 -50.923)"/><path class="b" d="M47,66.7" transform="translate(-38.344 -50.403)"/><g transform="translate(0 0)"><path class="a" d="M39.742,32.779c-6.434.288-11.044,5.042-10.756,11.476s5.186,10.372,11.62,10.036a9.012,9.012,0,0,0,7.2-3.649l-3.313-2.5a6.9,6.9,0,0,1-3.937,1.681c-3.505.192-5.906-2.4-6.05-5.81-.192-3.457,1.921-6.194,5.474-6.386,3.409-.192,5.762,2.257,6,5.618h0a2.739,2.739,0,0,0,2.881,2.4,2.809,2.809,0,0,0,2.641-2.689h0C51.123,36.573,46.129,32.443,39.742,32.779Z" transform="translate(-28.973 -32.76)"/></g><path class="a" d="M60.36,55.009c2.353-2.3,4.562-4.61,6.675-6.771a7.719,7.719,0,0,1,6.29-2.065,7.626,7.626,0,0,1,6.819,5.714,10.4,10.4,0,0,1,.192,1.2.176.176,0,0,0,.048.144v.816a9.215,9.215,0,0,1-.144,1.056,7.367,7.367,0,0,1-3.986,5.474,12.107,12.107,0,0,1-1.585.624,7.406,7.406,0,0,1-7.2-1.777c-.528-.48-1.008-.96-1.537-1.441a1.362,1.362,0,0,1-.048-1.921,1.44,1.44,0,0,1,2.017-.144l.432.432c.336.336.672.624,1.008.96a4.608,4.608,0,0,0,4.754,1.1,4.35,4.35,0,0,0,3.313-3.6,4.522,4.522,0,0,0-3.937-5.378,4.747,4.747,0,0,0-4.178,1.585c-2.593,2.689-3.841,4.466-6.146,7.2A2.141,2.141,0,0,1,59.4,56.834a2.252,2.252,0,0,1,.528-1.489.843.843,0,0,1,.24-.192Z" transform="translate(-44.79 -39.72)"/></g></g></svg>