<svg xmlns="http://www.w3.org/2000/svg" width="15.768" height="13.14" viewBox="0 0 15.768 13.14"><defs><style>.a{fill:#fff;fill-rule:evenodd;}</style></defs><path class="a" d="M12.078,15.995a.781.781,0,0,0,.727.1.762.762,0,0,0,.476-.552c.571-2.683,1.956-9.475,2.476-11.915a.513.513,0,0,0-.171-.5.526.526,0,0,0-.524-.092C12.307,4.052,3.824,7.236.356,8.519A.54.54,0,0,0,.389,9.546c1.555.465,3.6,1.112,3.6,1.112S4.94,13.539,5.437,15a.576.576,0,0,0,.4.378.569.569,0,0,0,.533-.136L8.4,13.326s2.347,1.721,3.678,2.669Zm-7.233-5.7,1.1,3.638.245-2.3,6.691-6.035a.182.182,0,0,0,.022-.248.187.187,0,0,0-.247-.042L4.844,10.294Z" transform="translate(0 -3)"/></svg>