<svg xmlns="http://www.w3.org/2000/svg" width="14.57" height="12.002" viewBox="0 0 14.57 12.002"><defs><style>.a,.b{fill:#fff;}.b{fill-rule:evenodd;}</style></defs><path class="a" d="M558.185,218.577a5.976,5.976,0,0,1-1.472.42c.237-.04.587-.469.726-.643a2.709,2.709,0,0,0,.49-.892c.013-.026.022-.058,0-.077a.083.083,0,0,0-.078.006,7.509,7.509,0,0,1-1.748.669.116.116,0,0,1-.12-.032,1.413,1.413,0,0,0-.153-.156,3.093,3.093,0,0,0-.847-.519,2.95,2.95,0,0,0-1.3-.209,3.105,3.105,0,0,0-1.232.348,3.182,3.182,0,0,0-.994.812,3.063,3.063,0,0,0-.594,1.189,3.219,3.219,0,0,0-.031,1.255c.009.07,0,.08-.06.07a9.336,9.336,0,0,1-6.007-3.058c-.07-.08-.108-.08-.166.006a3.046,3.046,0,0,0,.519,3.6c.118.111.239.223.369.325a3.052,3.052,0,0,1-1.159-.325c-.07-.044-.105-.019-.111.06a1.814,1.814,0,0,0,.019.344,3.08,3.08,0,0,0,1.9,2.455,1.783,1.783,0,0,0,.385.118,3.431,3.431,0,0,1-1.137.035c-.083-.016-.115.026-.083.105a3.2,3.2,0,0,0,2.388,2c.109.019.217.019.325.044-.006.01-.013.01-.019.019a3.785,3.785,0,0,1-1.631.865,5.846,5.846,0,0,1-2.478.317c-.133-.02-.161-.018-.2,0s0,.054.038.089c.169.112.341.211.516.306a8.186,8.186,0,0,0,1.656.663,8.821,8.821,0,0,0,8.564-2,8.987,8.987,0,0,0,2.37-6.556c0-.094.111-.147.178-.2a5.771,5.771,0,0,0,1.16-1.212.352.352,0,0,0,.071-.232v-.013C558.24,218.539,558.245,218.55,558.185,218.577Z" transform="translate(-543.67 -217.139)"/><g transform="translate(4.327 11.949)"><path class="b" d="M553.118,243.228Z" transform="translate(-553.118 -243.228)"/></g><g transform="translate(4.216 11.949)"><path class="b" d="M552.986,243.228c-.019,0-.24,0,0,0Z" transform="translate(-552.875 -243.228)"/></g><g transform="translate(4.818 11.951)"><path class="b" d="M554.189,243.243c0-.024.258,0,0,0C554.189,243.23,554.221,243.243,554.189,243.243Z" transform="translate(-554.189 -243.232)"/></g><g transform="translate(9.91 0.018)"><path class="b" d="M565.369,217.177a.052.052,0,0,1-.061,0Z" transform="translate(-565.308 -217.177)"/></g></svg>