<?xml version="1.0" encoding="utf-8"?>
<!-- Generator: Adobe Illustrator 25.3.0, SVG Export Plug-In . SVG Version: 6.00 Build 0)  -->
<svg version="1.1" id="Layer_1" xmlns="http://www.w3.org/2000/svg" xmlns:xlink="http://www.w3.org/1999/xlink" x="0px" y="0px"
	 viewBox="0 0 226 56" style="enable-background:new 0 0 226 56;" xml:space="preserve">
<style type="text/css">
	.st0{fill:url(#SVGID_1_);}
	.st1{fill:url(#SVGID_2_);}
	.st2{fill:url(#SVGID_3_);}
	.st3{fill:url(#SVGID_4_);}
	.st4{fill:url(#SVGID_5_);}
	.st5{fill:url(#SVGID_6_);}
	.st6{fill:url(#SVGID_7_);}
	.st7{fill:url(#SVGID_8_);}
	.st8{fill:url(#SVGID_9_);}
	.st9{fill:url(#SVGID_10_);}
	.st10{fill:url(#SVGID_11_);}
	.st11{fill:url(#SVGID_12_);}
	.st12{fill:url(#SVGID_13_);}
	.st13{fill:none;stroke:url(#SVGID_14_);stroke-width:2;stroke-miterlimit:10;}
</style>
<linearGradient id="SVGID_1_" gradientUnits="userSpaceOnUse" x1="139.1399" y1="21.1165" x2="199.4119" y2="21.6791" gradientTransform="matrix(1 0 0 -1 0 58)">
	<stop  offset="0" style="stop-color:#F05D60"/>
	<stop  offset="1" style="stop-color:#8B3991"/>
</linearGradient>
<path class="st0" d="M67.6,37.4c0-6,4.4-10.9,10.8-10.9c6.2,0,10.5,4.6,10.5,11.5v1.2H73.4c0.3,2.6,2.4,4.8,6,4.8
	c1.7,0,4.3-0.8,5.6-2.1l2.4,3.6c-2.1,1.9-5.3,2.9-8.5,2.9C72.4,48.4,67.6,44.1,67.6,37.4z M78.4,30.9c-3.4,0-4.9,2.5-5.1,4.6h10.3
	C83.4,33.5,82,30.9,78.4,30.9z"/>
<linearGradient id="SVGID_2_" gradientUnits="userSpaceOnUse" x1="139.1409" y1="21.0869" x2="199.4128" y2="21.6495" gradientTransform="matrix(1 0 0 -1 0 58)">
	<stop  offset="0" style="stop-color:#F05D60"/>
	<stop  offset="1" style="stop-color:#8B3991"/>
</linearGradient>
<path class="st1" d="M107.7,47.9V35.3c0-2.9-1.5-3.9-3.8-3.9c-2.2,0-3.8,1.2-4.7,2.4v14.1h-5.5V27h5.5v2.7c1.3-1.6,3.9-3.2,7.3-3.2
	c4.5,0,6.8,2.6,6.8,6.6v14.8H107.7z"/>
<linearGradient id="SVGID_3_" gradientUnits="userSpaceOnUse" x1="139.1077" y1="24.4805" x2="199.3807" y2="25.0431" gradientTransform="matrix(1 0 0 -1 0 58)">
	<stop  offset="0" style="stop-color:#F05D60"/>
	<stop  offset="1" style="stop-color:#8B3991"/>
</linearGradient>
<path class="st2" d="M117.7,43.9l3.3-4.6c2,2.1,5.1,3.9,9.2,3.9c3.4,0,5-1.6,5-3.2c0-5.1-16.6-1.6-16.6-12.5c0-4.8,4.2-8.7,10.9-8.7
	c4.5,0,8.4,1.4,11.2,4l-3.4,4.5C135,25,132,24,129,24c-2.6,0-4.1,1.1-4.1,2.9c0,4.5,16.6,1.5,16.6,12.3c0,5.2-3.8,9.3-11.5,9.3
	C124.4,48.4,120.4,46.6,117.7,43.9z"/>
<linearGradient id="SVGID_4_" gradientUnits="userSpaceOnUse" x1="139.1469" y1="20.3883" x2="199.4189" y2="20.9509" gradientTransform="matrix(1 0 0 -1 0 58)">
	<stop  offset="0" style="stop-color:#F05D60"/>
	<stop  offset="1" style="stop-color:#8B3991"/>
</linearGradient>
<path class="st3" d="M164.3,47.9l-4.4-14.2l-4.4,14.2h-5.8L143.3,27h5.7l3.9,14.1l4.5-14.1h4.9l4.5,14.1l3.9-14.1h5.7l-6.4,20.9
	H164.3z"/>
<linearGradient id="SVGID_5_" gradientUnits="userSpaceOnUse" x1="139.1489" y1="20.1014" x2="199.4218" y2="20.664" gradientTransform="matrix(1 0 0 -1 0 58)">
	<stop  offset="0" style="stop-color:#F05D60"/>
	<stop  offset="1" style="stop-color:#8B3991"/>
</linearGradient>
<path class="st4" d="M192.6,47.9v-2.2c-1.4,1.7-3.9,2.7-6.6,2.7c-3.3,0-7.2-2.3-7.2-6.9c0-4.9,3.9-6.7,7.2-6.7
	c2.8,0,5.2,0.9,6.6,2.5v-2.8c0-2.1-1.8-3.5-4.5-3.5c-2.3,0-4.3,0.8-6.1,2.4l-2.1-3.7c2.5-2.3,5.8-3.3,9.1-3.3c4.7,0,9.1,1.9,9.1,7.9
	v13.4H192.6z M192.6,42.9v-2.6c-0.9-1.2-2.6-1.8-4.4-1.8c-2.2,0-3.9,1.1-3.9,3.1c0,1.9,1.7,3.1,3.9,3.1
	C189.9,44.7,191.7,44.1,192.6,42.9z"/>
<linearGradient id="SVGID_6_" gradientUnits="userSpaceOnUse" x1="139.1858" y1="16.1522" x2="199.4588" y2="16.7148" gradientTransform="matrix(1 0 0 -1 0 58)">
	<stop  offset="0" style="stop-color:#F05D60"/>
	<stop  offset="1" style="stop-color:#8B3991"/>
</linearGradient>
<path class="st5" d="M209.8,45.2v10.7h-5.5V27h5.5v2.6c1.6-2,3.9-3.1,6.5-3.1c5.3,0,9.2,4,9.2,10.9c0,7-3.9,11-9.2,11
	C213.7,48.4,211.5,47.4,209.8,45.2z M219.8,37.4c0-3.6-2.1-6-5.2-6c-1.7,0-3.8,1-4.7,2.4v7.4c0.9,1.3,3,2.4,4.7,2.4
	C217.7,43.5,219.8,41.1,219.8,37.4z"/>
<linearGradient id="SVGID_7_" gradientUnits="userSpaceOnUse" x1="40.3942" y1="-2.1632" x2="40.3942" y2="16.5511" gradientTransform="matrix(1 0 0 -1 0 58)">
	<stop  offset="0.3693" style="stop-color:#F05D60"/>
	<stop  offset="1" style="stop-color:#8B3991"/>
</linearGradient>
<path class="st6" d="M40.4,56c1.5,0,2.6-0.8,2.6-1.8V43.5c0-1-1.1-1.8-2.6-1.8s-2.6,0.8-2.6,1.8v10.7C37.8,55.2,39,56,40.4,56z"/>
<linearGradient id="SVGID_8_" gradientUnits="userSpaceOnUse" x1="53.1247" y1="16.9095" x2="-13.3331" y2="36.1829" gradientTransform="matrix(1 0 0 -1 0 58)">
	<stop  offset="0.2522" style="stop-color:#F05D60"/>
	<stop  offset="1" style="stop-color:#8B3991"/>
</linearGradient>
<path class="st7" d="M19.6,12C7.9,12.5-0.5,21.2,0,32.9s9.4,18.9,21.1,18.2c6.2-0.3,10-2.7,13.1-6.6l-6-4.5c-2,1.7-4.6,2.9-7.2,3.1
	c-6.4,0.3-10.7-4.4-11-10.6c-0.3-6.3,3.5-11.3,9.9-11.6c6.2-0.3,10.5,4.1,10.9,10.2c0.3,2.6,2.6,4.5,5.2,4.4
	c2.6-0.2,4.7-2.3,4.8-4.9C40.2,18.9,31.2,11.4,19.6,12z"/>
<linearGradient id="SVGID_9_" gradientUnits="userSpaceOnUse" x1="64.7074" y1="29.4122" x2="24.7054" y2="4.5279" gradientTransform="matrix(1 0 0 -1 0 58)">
	<stop  offset="0.2522" style="stop-color:#F05D60"/>
	<stop  offset="1" style="stop-color:#8B3991"/>
</linearGradient>
<path class="st8" d="M28.3,39.8c4.3-4.2,8.3-8.4,12.1-12.3c3.1-3.1,7.1-4,11.4-3.8c5.9,0.4,10.9,4.6,12.4,10.4
	c0.2,0.7,0.3,1.5,0.3,2.2c0,0.1,0,0.2,0.1,0.3c0,0.5,0,1,0,1.5c-0.1,0.6-0.1,1.2-0.3,1.9c-1,4.6-3.3,8-7.2,10
	c-0.9,0.4-1.8,0.8-2.9,1.1c-4.9,1.3-9.2,0.2-13.1-3.2c-1-0.9-1.8-1.7-2.8-2.6c-1-1-1-2.4-0.1-3.5c1-1,2.6-1.2,3.7-0.3
	c0.3,0.3,0.5,0.5,0.8,0.8c0.6,0.6,1.2,1.1,1.8,1.7c2.5,2.3,5.4,3.1,8.6,2c3.2-1,5.6-3.2,6-6.5c0.6-5-2.1-9.1-7.2-9.8
	c-3-0.4-5.6,0.8-7.6,2.9c-4.7,4.9-7,8.1-11.2,13.1c-0.7,0.7-1.7,1.3-2.7,1.3c-2.2,0.1-4-1.7-4.1-3.8c0-1,0.3-2,1-2.7
	c0.2-0.2,0.3-0.3,0.4-0.3L28.3,39.8z"/>
<linearGradient id="SVGID_10_" gradientUnits="userSpaceOnUse" x1="183.482" y1="11.3888" x2="189.935" y2="11.3888">
	<stop  offset="0.2522" style="stop-color:#F05D60"/>
	<stop  offset="1" style="stop-color:#8B3991"/>
</linearGradient>
<path class="st9" d="M183.5,15.3V7.5h4.1c1.5,0,2.3,1,2.3,2c0,1-0.6,1.7-1.4,1.8c0.9,0.1,1.5,1,1.5,1.9c0,1.1-0.8,2.1-2.3,2.1H183.5
	z M188.2,9.7c0-0.5-0.3-0.9-1-0.9h-2.1v1.7h2.1C187.8,10.6,188.2,10.3,188.2,9.7z M188.4,13c0-0.5-0.3-1-1-1h-2.2v1.8h2.2
	C187.9,13.8,188.4,13.5,188.4,13z"/>
<linearGradient id="SVGID_11_" gradientUnits="userSpaceOnUse" x1="190.895" y1="12.48" x2="196.737" y2="12.48">
	<stop  offset="0.2522" style="stop-color:#F05D60"/>
	<stop  offset="1" style="stop-color:#8B3991"/>
</linearGradient>
<path class="st10" d="M190.9,12.4c0-1.7,1.2-3,3-3c1.7,0,2.9,1.3,2.9,3.1V13h-4.2c0.1,0.7,0.7,1.3,1.7,1.3c0.5,0,1.1-0.2,1.5-0.5
	l0.7,1c-0.5,0.5-1.5,0.8-2.4,0.8C192.2,15.4,190.9,14.3,190.9,12.4z M193.9,10.6c-1,0-1.3,0.7-1.4,1.2h2.8
	C195.2,11.4,194.8,10.6,193.9,10.6z"/>
<linearGradient id="SVGID_12_" gradientUnits="userSpaceOnUse" x1="197.085" y1="11.6555" x2="200.922" y2="11.6555">
	<stop  offset="0.2522" style="stop-color:#F05D60"/>
	<stop  offset="1" style="stop-color:#8B3991"/>
</linearGradient>
<path class="st11" d="M198,13.8v-3h-1V9.6h1V8h1.5v1.6h1.1v1.3h-1.1v2.5c0,0.3,0.2,0.6,0.5,0.6c0.3,0,0.4-0.1,0.5-0.2l0.3,1.1
	c-0.3,0.2-0.6,0.3-1.2,0.3C198.6,15.4,198,14.9,198,13.8z"/>
<linearGradient id="SVGID_13_" gradientUnits="userSpaceOnUse" x1="201.271" y1="12.4364" x2="206.589" y2="12.4364">
	<stop  offset="0.2522" style="stop-color:#F05D60"/>
	<stop  offset="1" style="stop-color:#8B3991"/>
</linearGradient>
<path class="st12" d="M205.1,15.3v-0.6c-0.3,0.4-1,0.7-1.8,0.7c-0.9,0-2-0.6-2-1.9s1-1.8,2-1.8c0.8,0,1.4,0.3,1.8,0.7v-0.8
	c0-0.6-0.5-1-1.2-1c-0.6,0-1.1,0.3-1.7,0.7l-0.5-1c0.7-0.6,1.6-0.9,2.4-0.9c1.3,0,2.4,0.5,2.4,2.2v3.7H205.1z M205.1,13.9v-0.7
	c-0.3-0.3-0.7-0.5-1.2-0.5c-0.6,0-1,0.3-1,0.9c0,0.5,0.5,0.9,1,0.9C204.4,14.4,204.8,14.3,205.1,13.9z"/>
<linearGradient id="SVGID_14_" gradientUnits="userSpaceOnUse" x1="165.3947" y1="46.6832" x2="224.6837" y2="47.2366" gradientTransform="matrix(1 0 0 -1 0 58)">
	<stop  offset="0" style="stop-color:#F05D60"/>
	<stop  offset="1" style="stop-color:#8B3991"/>
</linearGradient>
<path class="st13" d="M213.8,21.1h-37.5c-5.5,0-10-4.5-10-10c0-5.5,4.5-10,10-10h37.5c5.5,0,10,4.5,10,10
	C223.9,16.6,219.3,21.1,213.8,21.1z"/>
</svg>
