<?xml version="1.0" encoding="UTF-8"?><svg id="a" xmlns="http://www.w3.org/2000/svg" viewBox="0 0 592.82 126.95"><g><path d="M156.57,54.81c-.24-.24-.68-.56-1.31-.97-.63-.41-1.4-.8-2.31-1.18-.91-.38-1.89-.71-2.95-1-1.06-.29-2.14-.44-3.23-.44-1.92,0-3.36,.36-4.34,1.07-.98,.71-1.46,1.72-1.46,3.01,0,.99,.31,1.77,.92,2.35,.62,.58,1.54,1.07,2.77,1.48,1.23,.41,2.77,.85,4.62,1.33,2.39,.58,4.47,1.29,6.23,2.12,1.76,.83,3.11,1.92,4.05,3.27,.94,1.34,1.41,3.12,1.41,5.33,0,1.94-.36,3.6-1.08,4.98-.72,1.38-1.71,2.49-2.98,3.34-1.27,.85-2.7,1.47-4.31,1.86-1.61,.39-3.32,.59-5.13,.59s-3.63-.19-5.44-.56c-1.81-.38-3.56-.92-5.23-1.62-1.68-.7-3.22-1.55-4.62-2.54l3.13-6.11c.31,.31,.85,.71,1.64,1.21,.79,.5,1.74,.99,2.87,1.49,1.13,.5,2.36,.92,3.69,1.26,1.33,.34,2.68,.51,4.05,.51,1.92,0,3.37-.32,4.36-.96,.99-.64,1.49-1.56,1.49-2.74,0-1.09-.39-1.94-1.18-2.55-.79-.61-1.88-1.15-3.28-1.61-1.4-.46-3.06-.96-4.98-1.51-2.29-.65-4.21-1.37-5.75-2.17-1.54-.8-2.69-1.81-3.44-3.04-.75-1.23-1.13-2.76-1.13-4.6,0-2.49,.59-4.57,1.77-6.26,1.18-1.69,2.78-2.96,4.8-3.83,2.02-.87,4.26-1.3,6.72-1.3,1.71,0,3.33,.19,4.85,.56,1.52,.38,2.95,.87,4.28,1.49s2.53,1.28,3.59,2l-3.13,5.75Z" fill="#f99e44"/><path d="M191.61,75.48v6.21h-25.29V45.26h24.83v6.21h-17.75v8.77h15.34v5.75h-15.34v9.49h18.21Z" fill="#f99e44"/><path d="M194.28,63.17c0-2.22,.4-4.4,1.21-6.54,.8-2.14,1.98-4.09,3.51-5.85,1.54-1.76,3.42-3.16,5.64-4.21,2.22-1.04,4.75-1.56,7.59-1.56,3.35,0,6.25,.74,8.7,2.21,2.45,1.47,4.27,3.39,5.46,5.75l-5.44,3.75c-.62-1.37-1.42-2.45-2.41-3.26-.99-.8-2.05-1.37-3.18-1.69-1.13-.32-2.24-.49-3.33-.49-1.78,0-3.33,.36-4.64,1.08-1.32,.72-2.42,1.66-3.31,2.82-.89,1.16-1.55,2.46-1.98,3.9-.43,1.44-.64,2.87-.64,4.31,0,1.61,.26,3.16,.77,4.64,.51,1.49,1.24,2.8,2.18,3.95,.94,1.15,2.07,2.05,3.39,2.72,1.32,.67,2.76,1,4.34,1,1.13,0,2.27-.19,3.44-.56,1.16-.38,2.24-.98,3.23-1.8,.99-.82,1.76-1.88,2.31-3.18l5.8,3.33c-.72,1.81-1.89,3.35-3.51,4.62-1.62,1.27-3.45,2.22-5.46,2.87-2.02,.65-4.02,.97-6,.97-2.6,0-4.98-.54-7.13-1.62-2.15-1.08-4.01-2.51-5.57-4.31-1.56-1.8-2.77-3.81-3.64-6.05-.87-2.24-1.31-4.51-1.31-6.8Z" fill="#f99e44"/><path d="M247.12,81.95c-2.91,0-5.38-.49-7.41-1.46-2.04-.98-3.68-2.32-4.93-4.03-1.25-1.71-2.16-3.65-2.74-5.82-.58-2.17-.87-4.44-.87-6.8v-18.57h7.08v18.57c0,1.51,.15,2.97,.44,4.39,.29,1.42,.78,2.69,1.46,3.82,.68,1.13,1.59,2.02,2.72,2.67,1.13,.65,2.53,.97,4.21,.97s3.14-.33,4.28-1c1.15-.67,2.05-1.56,2.72-2.69s1.15-2.4,1.46-3.82c.31-1.42,.46-2.86,.46-4.34v-18.57h7.03v18.57c0,2.5-.3,4.84-.9,7.03-.6,2.19-1.54,4.11-2.82,5.77-1.28,1.66-2.93,2.96-4.95,3.9-2.02,.94-4.43,1.41-7.23,1.41Z" fill="#f99e44"/><path d="M270.16,81.69V45.26h16.11c1.68,0,3.22,.34,4.64,1.03,1.42,.68,2.65,1.61,3.69,2.77,1.04,1.16,1.85,2.46,2.41,3.9,.56,1.44,.85,2.91,.85,4.41s-.27,3.02-.79,4.44c-.53,1.42-1.29,2.66-2.28,3.72-.99,1.06-2.15,1.88-3.49,2.46l8.31,13.7h-7.8l-7.49-12.21h-7.08v12.21h-7.08Zm7.08-18.42h8.88c.89,0,1.68-.26,2.36-.8,.68-.53,1.23-1.24,1.64-2.13,.41-.89,.62-1.88,.62-2.98,0-1.16-.24-2.18-.72-3.05-.48-.87-1.09-1.56-1.82-2.08-.74-.51-1.53-.77-2.39-.77h-8.57v11.8Z" fill="#f99e44"/><path d="M329.57,75.48v6.21h-25.29V45.26h24.83v6.21h-17.75v8.77h15.34v5.75h-15.34v9.49h18.21Z" fill="#f99e44"/><path d="M345.22,63.17c0-2.22,.4-4.4,1.21-6.54,.8-2.14,1.98-4.09,3.51-5.85,1.54-1.76,3.42-3.16,5.64-4.21,2.22-1.04,4.75-1.56,7.59-1.56,3.35,0,6.25,.74,8.7,2.21,2.44,1.47,4.27,3.39,5.46,5.75l-5.44,3.75c-.62-1.37-1.42-2.45-2.41-3.26-.99-.8-2.05-1.37-3.18-1.69-1.13-.32-2.24-.49-3.33-.49-1.78,0-3.33,.36-4.64,1.08-1.32,.72-2.42,1.66-3.31,2.82-.89,1.16-1.55,2.46-1.97,3.9-.43,1.44-.64,2.87-.64,4.31,0,1.61,.26,3.16,.77,4.64,.51,1.49,1.24,2.8,2.18,3.95,.94,1.15,2.07,2.05,3.39,2.72,1.32,.67,2.76,1,4.33,1,1.13,0,2.27-.19,3.44-.56,1.16-.38,2.24-.98,3.23-1.8s1.76-1.88,2.31-3.18l5.8,3.33c-.72,1.81-1.89,3.35-3.51,4.62-1.62,1.27-3.45,2.22-5.46,2.87-2.02,.65-4.02,.97-6,.97-2.6,0-4.98-.54-7.13-1.62s-4.01-2.51-5.57-4.31c-1.56-1.8-2.77-3.81-3.64-6.05-.87-2.24-1.31-4.51-1.31-6.8Z" fill="#fff"/><path d="M397.7,81.95c-2.67,0-5.09-.51-7.26-1.54-2.17-1.03-4.04-2.42-5.59-4.18-1.56-1.76-2.76-3.75-3.62-5.95-.86-2.21-1.28-4.47-1.28-6.8s.45-4.75,1.36-6.95c.91-2.21,2.15-4.17,3.75-5.9,1.59-1.73,3.47-3.1,5.64-4.1,2.17-1.01,4.56-1.51,7.16-1.51s5.04,.53,7.21,1.59c2.17,1.06,4.03,2.48,5.57,4.26,1.54,1.78,2.74,3.76,3.59,5.95,.85,2.19,1.28,4.45,1.28,6.77s-.45,4.69-1.33,6.9c-.89,2.21-2.13,4.17-3.72,5.9-1.59,1.73-3.47,3.09-5.64,4.08-2.17,.99-4.54,1.49-7.11,1.49Zm-10.57-18.47c0,1.57,.24,3.1,.72,4.57,.48,1.47,1.17,2.78,2.08,3.93s2.02,2.05,3.33,2.72c1.32,.67,2.81,1,4.49,1s3.23-.35,4.57-1.05c1.33-.7,2.44-1.64,3.33-2.82,.89-1.18,1.56-2.5,2.03-3.95,.46-1.45,.69-2.92,.69-4.39,0-1.57-.25-3.09-.74-4.54-.5-1.45-1.2-2.75-2.1-3.9-.91-1.15-2.02-2.05-3.33-2.72s-2.8-1-4.44-1c-1.74,0-3.28,.35-4.59,1.05-1.32,.7-2.42,1.63-3.31,2.8-.89,1.16-1.56,2.46-2.03,3.9-.46,1.44-.69,2.91-.69,4.41Z" fill="#fff"/><path d="M450.65,81.69v-23.91l-9.34,17.8h-3.95l-9.34-17.8v23.91h-7.08V45.26h7.59l10.77,20.73,10.88-20.73h7.54v36.43h-7.08Z" fill="#fff"/><path d="M465.32,81.69V45.26h15.44c1.68,0,3.21,.34,4.62,1.03,1.4,.68,2.62,1.61,3.67,2.77,1.04,1.16,1.86,2.46,2.44,3.9,.58,1.44,.87,2.91,.87,4.41,0,2.05-.48,4-1.44,5.85-.96,1.85-2.28,3.35-3.95,4.52-1.68,1.16-3.66,1.74-5.95,1.74h-8.62v12.21h-7.08Zm7.08-18.42h8.21c.85,0,1.62-.24,2.31-.72,.68-.48,1.23-1.17,1.64-2.08,.41-.91,.62-1.94,.62-3.1,0-1.27-.23-2.34-.69-3.23-.46-.89-1.06-1.56-1.8-2-.74-.44-1.53-.67-2.38-.67h-7.9v11.8Z" fill="#fff"/><path d="M512.73,81.95c-2.91,0-5.38-.49-7.41-1.46-2.04-.98-3.68-2.32-4.93-4.03-1.25-1.71-2.16-3.65-2.75-5.82-.58-2.17-.87-4.44-.87-6.8v-18.57h7.08v18.57c0,1.51,.15,2.97,.44,4.39,.29,1.42,.78,2.69,1.46,3.82,.68,1.13,1.59,2.02,2.72,2.67,1.13,.65,2.53,.97,4.21,.97s3.14-.33,4.28-1c1.15-.67,2.05-1.56,2.72-2.69s1.15-2.4,1.46-3.82c.31-1.42,.46-2.86,.46-4.34v-18.57h7.03v18.57c0,2.5-.3,4.84-.9,7.03-.6,2.19-1.54,4.11-2.82,5.77-1.28,1.66-2.93,2.96-4.95,3.9-2.02,.94-4.43,1.41-7.23,1.41Z" fill="#fff"/><path d="M563.01,51.47h-11.65v30.22h-7.03v-30.22h-11.65v-6.21h30.32v6.21Z" fill="#fff"/><path d="M592.82,75.48v6.21h-25.29V45.26h24.83v6.21h-17.75v8.77h15.34v5.75h-15.34v9.49h18.21Z" fill="#fff"/></g><g><polygon points="55.02 5.07 .09 33.68 .09 71.54 .09 87.81 .09 90.91 55.02 119.52 109.96 90.91 109.96 82.82 109.96 71.54 109.96 33.68 55.02 5.07" fill="#11162d"/><g><polygon points="54.97 126.95 0 95.22 0 72.31 15.3 72.31 15.3 86.38 54.97 109.29 94.65 86.38 94.65 72.31 109.95 72.31 109.95 95.22 54.97 126.95" fill="#f19024"/><polygon points="15.3 55.49 0 55.49 0 31.74 54.97 0 109.95 31.74 109.95 50.73 94.65 50.73 94.65 40.57 54.97 17.67 15.3 40.57 15.3 55.49" fill="#f19024"/></g><polygon points="60.96 79 41.38 79 28.04 62.72 47.62 62.72 60.96 79" fill="#f19024"/><polygon points="87.28 44.69 61.24 79 41.65 79 67.7 44.69 87.28 44.69" fill="#fffffa"/></g></svg>