<svg width="219" height="253" viewBox="0 0 219 253" fill="none" xmlns="http://www.w3.org/2000/svg">
<path d="M36.485 5.67383L6.60352 39.2317V241.585L21.5481 246.466H199.195L216.728 223.148V10.1955L36.485 5.67383Z" fill="#11162D"/>
<path d="M179.126 22.6245H40.0851C31.9327 22.6245 31.9174 34.8458 40.0851 34.8458H179.126C187.279 34.8458 187.294 22.6245 179.126 22.6245Z" fill="#F29224"/>
<path d="M218.801 220.247V39.0854C218.801 28.2746 219.168 17.4028 218.801 6.59963C218.801 6.43952 218.801 6.27942 218.801 6.11932C218.801 3.20695 216.872 1.49918 214.599 0.980749C213.626 0.370831 212.478 0.0125033 211.246 0.0125033H40.3912C37.0461 0.0125033 34.1909 -0.30008 31.4887 2.20059C25.962 7.30866 20.7797 12.8132 15.4443 18.1042C11.0046 22.5109 6.27391 26.7651 2.06378 31.3776C-0.0948634 33.741 -0.186721 37.2328 0.142435 40.2367C0.211327 40.8542 0.303185 41.4641 0.410352 42.0588C0.28022 42.5543 0.203673 43.088 0.203673 43.6751V205.517C0.203673 213.804 0.058232 222.107 0.203673 230.394C0.349113 238.658 7.20779 246.816 14.5793 250.369C18.6746 252.344 22.2571 252.992 26.6126 252.992H195.974C196.97 252.992 197.919 252.748 198.768 252.336C200.95 252.58 203.109 251.505 204.395 249.66C206.722 246.313 209.041 242.974 211.368 239.627C212.937 237.37 214.507 235.113 216.076 232.857C216.964 231.583 218.181 230.234 218.61 228.717C219.344 226.14 218.816 222.869 218.816 220.254L218.801 220.247ZM22.923 240.755C22.6551 240.74 22.3949 240.709 22.923 240.755V240.755ZM189.629 74.5217V238.994C189.629 239.581 189.613 240.168 189.598 240.763H33.1957C30.1415 240.763 27.0719 240.679 24.0177 240.763C23.7191 240.702 23.2981 240.625 23.1374 240.58C22.7853 240.481 21.6217 240.115 21.6983 240.153C18.6364 238.941 16.0644 236.768 14.4033 234.023C13.5842 232.674 13.3775 232.201 13.1555 231.461C13.0867 231.225 13.0254 230.905 12.9336 230.623C12.9106 230.295 12.8647 229.944 12.8647 229.769V57.7261C13.8751 58.1683 14.9161 58.5495 15.9725 58.8468C17.9934 59.4186 20.1597 59.7007 22.2571 59.7388C23.2828 59.7617 24.2856 59.6702 25.3037 59.5558C25.9084 59.4872 27.424 59.4186 26.5973 59.411C34.6884 59.411 42.7795 59.6168 50.8706 59.7236L104.462 60.4021L161.168 61.1264C170.652 61.2484 180.137 61.3703 189.621 61.4923V74.5293L189.629 74.5217ZM202.305 232.94V79.0656C202.305 71.3273 202.619 63.5203 202.305 55.782C202.305 55.6752 202.305 55.5609 202.305 55.4541C202.305 52.1148 199.404 49.3854 195.967 49.3397C174.411 49.0652 152.855 48.7908 131.299 48.5163C100.152 48.1199 69.0048 47.7234 37.8575 47.327C34.2751 47.2812 30.6926 47.1745 27.1102 47.1897C25.0511 47.1973 23.0302 47.7234 20.9864 47.4337C17.825 46.9839 14.8626 45.1617 13.5383 42.2951C13.3086 41.7996 13.1402 41.243 13.0025 40.717C12.6886 39.5276 12.7422 39.6496 12.7116 38.9558C12.7116 38.8186 12.7116 38.5899 12.7269 38.323C21.4992 29.6241 30.2793 20.9251 39.0516 12.2261H198.37C196.074 15.0699 193.785 17.9212 191.489 20.765C189.391 23.3724 188.856 26.8718 191.489 29.4106C193.678 31.5148 198.34 32.0332 200.453 29.4106C202.772 26.5287 205.091 23.6469 207.418 20.765V218.203C207.418 220.666 207.219 223.22 207.342 225.705C205.665 228.115 203.989 230.531 202.313 232.94H202.305Z" fill="#F29224"/>
<path d="M108.826 178.317H72.3448L47.4927 143.107H83.9743L108.826 178.317Z" fill="#F19024"/>
<path d="M158.802 104.49L109.535 178.317H72.4805L121.748 104.49" fill="#FFFFFA"/>
</svg>
