<svg xmlns="http://www.w3.org/2000/svg" width="125.552" height="128.497" viewBox="0 0 125.552 128.497"><defs><style>.a,.c{fill:#a7bfa2;}.a,.b,.c,.e{stroke:#000;stroke-width:4px;}.a,.b{stroke-linecap:round;}.a{stroke-linejoin:round;}.b,.e{fill:#fff;}.b,.c,.e{stroke-miterlimit:10;}.d,.f{opacity:0.2;}</style></defs><g transform="translate(-325.825 -181.985)"><g transform="translate(352.348 281.579)"><path class="a" d="M465.048,468.834a37.827,37.827,0,0,0-72.431,0Z" transform="translate(-392.617 -441.932)"/><line class="b" y2="6.902" transform="translate(17.976 17.931)"/><line class="b" y2="6.902" transform="translate(54.976 17.931)"/></g><g transform="translate(327.839 183.985)"><path class="c" d="M571.474,286.132a27.7,27.7,0,0,1,17.623-9.145,5.548,5.548,0,0,1,5.981,6.413l-1.33,8.434a42.148,42.148,0,0,1-31.4,34.319Z" transform="translate(-473.622 -241.783)"/><path class="c" d="M360.638,326.153a42.146,42.146,0,0,1-31.4-34.319l-1.331-8.434a5.548,5.548,0,0,1,5.981-6.413,27.7,27.7,0,0,1,17.623,9.145Z" transform="translate(-327.839 -241.783)"/><path class="d" d="M360.638,326.153a42.146,42.146,0,0,1-31.4-34.319l-1.331-8.434a5.548,5.548,0,0,1,5.981-6.413,27.7,27.7,0,0,1,17.623,9.145Z" transform="translate(-327.839 -241.783)"/><path class="d" d="M571.474,286.132a27.7,27.7,0,0,1,17.623-9.145,5.548,5.548,0,0,1,5.981,6.413l-1.33,8.434a42.148,42.148,0,0,1-31.4,34.319Z" transform="translate(-473.622 -241.783)"/><g transform="translate(15.36 12.749)"><circle class="c" cx="45.364" cy="45.364" r="45.364"/><circle class="c" cx="45.364" cy="45.364" r="45.364"/></g><path class="e" d="M541.753,342.414H537.5a2.475,2.475,0,0,1-2.251-3.505l4.248-9.292a2.475,2.475,0,0,1,4.5,0l4.249,9.292A2.475,2.475,0,0,1,546,342.414Z" transform="translate(-456.637 -273.618)"/><path class="e" d="M413.848,342.414H409.6a2.475,2.475,0,0,1-2.251-3.505l4.249-9.292a2.475,2.475,0,0,1,4.5,0l4.248,9.292a2.475,2.475,0,0,1-2.251,3.505Z" transform="translate(-377.125 -273.618)"/><g transform="translate(11.864 62.039)"><path class="c" d="M452.094,347.957c3.624,0,5.944,4.576,4.266,8.395-9.092,20.692-27.311,34.816-48.3,34.816s-39.209-14.124-48.3-34.816c-1.679-3.819.641-8.4,4.266-8.4l27.375,5.791a80.525,80.525,0,0,0,33.326,0Z" transform="translate(-359.197 -347.957)"/></g><g transform="translate(68.691 38.239)"><line class="b" x1="14.261"/><line class="b" y2="7.755" transform="translate(3.202 1.429)"/></g><g transform="translate(38.549 38.239)"><line class="b" x2="14.261"/><line class="b" y2="7.755" transform="translate(11.059 1.429)"/></g><path class="e" d="M483.945,196.326c.008-.031.016-.061.022-.092.013-.063.021-.126.028-.19,0-.042.011-.084.013-.127s0-.107,0-.16,0-.106,0-.16-.008-.085-.013-.127c-.008-.063-.016-.126-.028-.189-.006-.031-.014-.062-.022-.092-.017-.072-.036-.144-.06-.216,0-.014-.011-.028-.016-.041-.025-.07-.048-.139-.079-.208l-4.248-9.292a2.475,2.475,0,0,0-4.5,0l-4.249,9.292c-.031.069-.054.139-.079.209,0,.014-.011.027-.015.041-.024.072-.043.144-.06.216-.008.031-.016.061-.022.092-.012.063-.021.126-.028.19-.005.042-.011.084-.013.127s0,.107,0,.16,0,.106,0,.16.008.085.013.127c.007.063.016.126.028.19.006.031.014.062.022.092.017.072.036.145.06.216,0,.014.011.027.015.041.025.07.048.14.079.208l4.249,9.292a2.476,2.476,0,0,0,4.5,0l4.248-9.292c.031-.069.055-.138.079-.208,0-.014.011-.027.016-.041C483.91,196.47,483.928,196.4,483.945,196.326Z" transform="translate(-416.566 -183.985)"/></g><g class="f" transform="translate(340.902 196.61)"><path d="M416.615,308.9c-1.5.151-2.51.765-4.231,0-25.551,5.4-57.763-29.872-48.3-42.445,0-23.753,20.813-48.439,44.274-49.1-17.294,4.627-30.2,22.837-30.2,44.6C378.155,287.122,395.261,308.753,416.615,308.9Z" transform="translate(-362.393 -217.354)"/></g></g></svg>