<svg xmlns="http://www.w3.org/2000/svg" width="24" height="24" viewBox="0 0 24 24">
  <g id="Injection_Black" data-name="Injection Black" transform="translate(-12745 -3314)">
    <rect id="Rectangle_9151" data-name="Rectangle 9151" width="24" height="24" transform="translate(12745 3314)" fill="rgba(255,255,255,0)"/>
    <g id="Group_21980" data-name="Group 21980" transform="translate(12616.803 3185.842)">
      <path id="Path_25191" data-name="Path 25191" d="M144.416,131.078c-.29.343-.087.9.33,1.453l-1.067,1.264a2.461,2.461,0,0,0-2.267.84l-6.291,7.452a2.458,2.458,0,0,0,.074,3.257l-3.042,3.6a.3.3,0,1,0,.466.393l3.042-3.6a2.46,2.46,0,0,0,3.223-.473l6.291-7.452a2.446,2.446,0,0,0,.572-1.8,2.474,2.474,0,0,0-.123-.581l1.065-1.261a3.594,3.594,0,0,0,.331.152,1.761,1.761,0,0,0,.637.143.646.646,0,0,0,.522-.215c.457-.541-.31-1.611-1.216-2.376s-2.089-1.342-2.546-.8Zm2.153,1.266c.86.726,1.152,1.35,1.139,1.512a1.222,1.222,0,0,1-.613-.163l.037-.044a.3.3,0,0,0-.036-.43l-1.478-1.248a.3.3,0,0,0-.43.036l-.037.043a1.227,1.227,0,0,1-.264-.577A2.924,2.924,0,0,1,146.569,132.344Zm-1.43,3.724a1.841,1.841,0,0,1-.43,1.351l-.156.184-.541-.457a.229.229,0,0,0-.3.349l.541.457-.532.63-.975-.823a.229.229,0,1,0-.3.35l.975.823-.587.695-.541-.457a.229.229,0,1,0-.3.349l.541.457-.266.315-.266.315-.975-.823a.229.229,0,0,0-.3.349l.975.823-.449.532-.541-.457a.229.229,0,0,0-.3.35l.541.457-.532.63-.975-.823a.229.229,0,0,0-.3.35l.975.823-.587.695-.541-.457a.229.229,0,1,0-.295.35l.541.457-.531.63-.975-.823a.229.229,0,1,0-.3.349l.975.823-.026.031a1.852,1.852,0,0,1-2.831-2.39l3.866-4.58,2.425-2.872a1.84,1.84,0,0,1,1.259-.651q.08-.007.159-.007a1.853,1.853,0,0,1,1.843,1.7Zm-.257-1.725a2.446,2.446,0,0,0-.566-.356l1.141-1.351,1.012.854-1.14,1.351A2.472,2.472,0,0,0,144.882,134.343Z" transform="translate(0)"/>
      <g id="Group_21979" data-name="Group 21979" transform="translate(139.048 137.623)">
        <g id="Group_21978" data-name="Group 21978" transform="translate(0 0)">
          <path id="Path_25192" data-name="Path 25192" d="M274.013,268.787l3.14,2.613c.2.164.483-.118.284-.284L274.3,268.5c-.2-.164-.483.118-.284.284Z" transform="translate(-273.945 -268.454)"/>
        </g>
      </g>
    </g>
  </g>
</svg>
