<svg xmlns="http://www.w3.org/2000/svg" xmlns:xlink="http://www.w3.org/1999/xlink" width="38" height="38" viewBox="0 0 38 38">
  <defs>
    <clipPath id="clip-path">
      <rect id="Rectangle_8516" data-name="Rectangle 8516" width="38" height="38" fill="#fff"/>
    </clipPath>
  </defs>
  <g id="Group_22015" data-name="Group 22015" clip-path="url(#clip-path)">
    <path id="Path_25194" data-name="Path 25194" d="M1.294,6.484C0,9.025,0,12.35,0,19s0,9.975,1.294,12.516a11.909,11.909,0,0,0,5.189,5.189C9.025,38,12.35,38,19,38s9.975,0,12.516-1.294a11.909,11.909,0,0,0,5.189-5.189C38,28.975,38,25.65,38,19s0-9.975-1.294-12.516a11.909,11.909,0,0,0-5.189-5.189C28.975,0,25.65,0,19,0S9.025,0,6.484,1.294A11.91,11.91,0,0,0,1.294,6.484Zm27.188,3.764A1.237,1.237,0,0,1,29.717,11.5c-.059,3.539-.2,6.246-.451,8.39a17.542,17.542,0,0,1-1.187,5.023,7.951,7.951,0,0,1-1.4,2.179,10.9,10.9,0,0,1-2.517,1.936c-.4.237-.808.471-1.24.716-.921.523-1.935,1.1-3.083,1.867a1.228,1.228,0,0,1-1.372,0c-1.166-.777-2.192-1.36-3.122-1.887l-.606-.345a13.2,13.2,0,0,1-2.921-2.1,7.449,7.449,0,0,1-1.455-2.09A14.646,14.646,0,0,1,9.2,21.025,72.77,72.77,0,0,1,8.6,11.5a1.237,1.237,0,0,1,.35-.885,1.259,1.259,0,0,1,.885-.368h.511A12.944,12.944,0,0,0,18.394,7.76a1.239,1.239,0,0,1,1.514,0,12.949,12.949,0,0,0,8.057,2.488ZM25.721,24.124a12.345,12.345,0,0,0,.95-3.473,64.962,64.962,0,0,0,.552-7.944,15.157,15.157,0,0,1-8.069-2.452,15.262,15.262,0,0,1-8.063,2.452c.065,2.886.2,5.13.4,6.893a15.43,15.43,0,0,0,1,4.322,5.28,5.28,0,0,0,.956,1.5,8.48,8.48,0,0,0,1.965,1.5c.352.211.741.431,1.163.67.753.426,1.615.914,2.577,1.527.944-.6,1.794-1.085,2.538-1.508q.337-.191.644-.368a11.109,11.109,0,0,0,2.393-1.68A5.254,5.254,0,0,0,25.721,24.124Z" fill="#3375bb" fill-rule="evenodd"/>
  </g>
</svg>
