<svg xmlns="http://www.w3.org/2000/svg" width="16.417" height="13.682" viewBox="0 0 16.417 13.682"><defs><style>.a{fill:#fff;}</style></defs><path class="a" d="M16.417,8.689a1.815,1.815,0,0,0-3.076-1.3,9.368,9.368,0,0,0-4.768-1.4L9.587,2.8l2.747.644,0,.04a1.492,1.492,0,1,0,.1-.537L9.473,2.249a.253.253,0,0,0-.3.17L8.041,5.981A9.477,9.477,0,0,0,3.047,7.366,1.807,1.807,0,1,0,.9,10.243a3.226,3.226,0,0,0-.059.586c0,2.675,3.289,4.852,7.332,4.852s7.333-2.177,7.333-4.852a3.248,3.248,0,0,0-.051-.554,1.8,1.8,0,0,0,.961-1.586ZM4.635,9.931a1.082,1.082,0,1,1,1.082,1.077A1.081,1.081,0,0,1,4.635,9.931Zm6.2,3.194a3.568,3.568,0,0,1-2.616.806l-.009,0-.009,0a3.566,3.566,0,0,1-2.616-.806.254.254,0,1,1,.36-.358,3.11,3.11,0,0,0,2.256.657l.009,0,.009,0a3.109,3.109,0,0,0,2.256-.658.254.254,0,0,1,.36.358ZM10.7,11.008a1.077,1.077,0,1,1,1.081-1.077A1.08,1.08,0,0,1,10.7,11.008Z" transform="translate(0 -2)"/></svg>