<svg width="62" height="51" viewBox="0 0 62 51" fill="none" xmlns="http://www.w3.org/2000/svg">
<path d="M15.64 30.82C14.41 30.79 13.37 30.65 12.34 30.36C9.71001 29.62 7.12001 28.75 4.53001 27.9C3.66001 27.61 2.79001 27.33 1.93001 27.02C1.12001 26.73 0.570014 25.74 0.740014 24.96C0.830014 24.57 1.05001 24.26 1.32001 23.98C2.00001 23.29 2.83001 22.84 3.70001 22.48C6.18001 21.44 8.67001 20.42 11.15 19.4C16.98 17 22.81 14.61 28.64 12.2C32.49 10.61 36.34 9.03995 40.17 7.41995C43.78 5.89995 47.4 4.39995 51.02 2.88995C52.71 2.18995 54.4 1.47995 56.1 0.809953C57.07 0.429953 58.07 0.229952 59.12 0.359952C60.28 0.499952 61.05 1.20995 61.27 2.36995C61.43 3.22995 61.33 4.07995 61.22 4.92995C60.64 9.39995 59.89 13.84 59.23 18.29C58.48 23.3 57.66 28.29 56.87 33.29C56.21 37.5 55.52 41.7 54.85 45.91C54.76 46.5 54.68 47.0999 54.48 47.6699C54.3 48.1999 54.06 48.7 53.72 49.15C52.96 50.16 51.93 50.58 50.68 50.48C49.54 50.39 48.48 50.01 47.44 49.54C46.18 48.9799 45.03 48.24 43.89 47.47C41.53 45.88 39.14 44.34 36.77 42.75C34.2 41.0299 31.65 39.29 29.22 37.37C28.93 37.14 28.64 36.91 28.36 36.6699C28.01 36.3699 27.72 36.02 27.5 35.61C27.06 34.81 27.06 34 27.47 33.19C27.74 32.64 28.16 32.21 28.61 31.8C33.26 27.51 37.87 23.19 42.39 18.76C43.29 17.88 44.19 16.99 45.06 16.09C45.58 15.55 46 14.94 46.31 14.25C46.43 13.97 46.54 13.69 46.52 13.38C46.51 13.03 46.34 12.85 46 12.82C45.65 12.79 45.32 12.89 45 13.01C44.14 13.33 43.34 13.78 42.55 14.25C41.36 14.97 40.23 15.78 39.09 16.56C33.97 20.07 28.83 23.55 23.65 26.98C22.27 27.9 20.87 28.79 19.51 29.74C18.62 30.36 17.64 30.64 16.59 30.75C16.22 30.79 15.85 30.8 15.64 30.81V30.82Z" fill="white"/>
</svg>
