<svg width="67" height="52" viewBox="0 0 67 52" fill="none" xmlns="http://www.w3.org/2000/svg">
<path d="M0.0100002 42.998C3.23 43.368 6.45 43.628 9.68 43.068C13.02 42.488 16.15 41.358 19.22 39.488C13.38 38.248 9.73 34.888 8.12 29.098C10.05 29.458 11.82 29.778 13.76 29.448C7.65 26.758 4.69 22.178 4.9 15.348C6.7 16.378 8.37 17.218 10.27 17.508C10.29 17.038 9.95 16.898 9.73 16.678C5.59 12.518 4.82 5.58804 7.9 0.598038C8.35 -0.131962 8.62 -0.241961 9.16 0.538039C14.15 7.78804 20.9 12.638 29.27 15.208C30.48 15.578 31.76 15.738 32.97 16.088C33.83 16.338 33.93 16.028 33.9 15.278C33.7 10.608 35.53 6.86804 39.22 4.08804C44.6 0.0280361 52.41 0.908039 56.77 6.04804C57.25 6.61804 57.69 6.79804 58.45 6.69804C60.94 6.35804 63.34 5.68804 65.98 4.60804C64.62 7.53804 62.66 9.48804 59.84 11.038C62.4 11.188 64.51 10.548 66.66 10.198C66.7 10.238 66.73 10.288 66.77 10.328C65.22 12.448 63.16 14.008 60.97 15.378C60.29 15.808 60.06 16.288 59.97 17.038C58.58 28.528 53.38 37.848 43.97 44.608C37.72 49.098 30.64 51.098 22.94 51.018C14.73 50.938 7.3 48.528 0.67 43.658C0.42 43.468 0.0700005 43.348 0.0200005 42.968L0 42.988L0.0100002 42.998Z" fill="white"/>
</svg>
