<svg width="270" height="82" viewBox="0 0 270 82" fill="none" xmlns="http://www.w3.org/2000/svg">
<path d="M55.1608 33.576C63.7528 33.576 67.9768 29.16 67.9768 23.304C67.9768 11.352 49.5928 14.76 49.5928 9.72C49.5928 7.8 51.2248 6.552 54.1048 6.552C57.3688 6.552 60.8248 7.656 63.4168 10.056L67.2088 4.968C64.0408 2.04 59.8168 0.503998 54.7288 0.503998C47.1928 0.503998 42.5848 4.92 42.5848 10.248C42.5848 22.296 61.0168 18.408 61.0168 23.976C61.0168 25.848 59.2408 27.528 55.4488 27.528C51.0328 27.528 47.5288 25.512 45.2728 23.16L41.5288 28.488C44.5528 31.512 48.9688 33.576 55.1608 33.576ZM96.5259 33L103.582 9.816H97.1979L92.8779 25.416L87.7899 9.816H82.3659L77.2779 25.416L72.9579 9.816H66.6219L73.6779 33H80.2059L85.1019 17.208L89.9979 33H96.5259ZM124.247 33V18.024C124.247 11.352 119.399 9.24 114.071 9.24C110.423 9.24 106.775 10.344 103.943 12.888L106.343 17.16C108.263 15.384 110.567 14.424 113.015 14.424C116.087 14.424 118.103 15.96 118.103 18.312V21.24C116.567 19.416 113.879 18.408 110.759 18.408C107.063 18.408 102.743 20.424 102.743 25.896C102.743 31.08 107.063 33.576 110.759 33.576C113.783 33.576 116.519 32.472 118.103 30.552V33H124.247ZM113.207 29.448C110.807 29.448 108.839 28.2 108.839 25.992C108.839 23.784 110.807 22.488 113.207 22.488C115.175 22.488 117.095 23.208 118.103 24.552V27.432C117.095 28.776 115.175 29.448 113.207 29.448ZM141.094 33.576C147.046 33.576 151.366 29.112 151.366 21.384C151.366 13.656 147.046 9.24 141.094 9.24C138.262 9.24 135.718 10.488 133.942 12.744V9.816H127.846V41.832H133.942V30.024C135.862 32.424 138.358 33.576 141.094 33.576ZM139.174 28.152C137.206 28.152 134.95 26.952 133.942 25.464V17.304C134.998 15.768 137.206 14.664 139.174 14.664C142.678 14.664 145.078 17.4 145.078 21.384C145.078 25.416 142.678 28.152 139.174 28.152ZM180.818 33L186.362 15.612H183.518L179.27 29.472L174.734 15.612H172.394L167.822 29.472L163.574 15.612H160.766L166.31 33H169.01L173.546 19.032L178.082 33H180.818ZM189.04 13.128C190.048 13.128 190.84 12.336 190.84 11.328C190.84 10.32 190.048 9.492 189.04 9.492C188.032 9.492 187.204 10.32 187.204 11.328C187.204 12.336 188.032 13.128 189.04 13.128ZM190.372 33V15.612H187.672V33H190.372ZM198.386 33.432C199.934 33.432 200.906 32.964 201.59 32.316L200.798 30.264C200.438 30.66 199.754 31.02 198.962 31.02C197.81 31.02 197.234 30.084 197.234 28.788V17.988H200.762V15.612H197.234V10.86H194.498V15.612H191.618V17.988H194.498V29.364C194.498 31.956 195.794 33.432 198.386 33.432ZM217.212 33V20.724C217.212 16.944 215.304 15.18 211.668 15.18C209.04 15.18 206.664 16.656 205.476 18.132V8.988H202.776V33H205.476V20.292C206.484 18.888 208.5 17.592 210.588 17.592C212.964 17.592 214.512 18.456 214.512 21.552V33H217.212ZM10.5875 81.576C13.1315 81.576 14.7635 80.904 15.6755 80.088L14.3795 75.432C14.0435 75.816 13.1795 76.152 12.2675 76.152C10.9235 76.152 10.1555 75.048 10.1555 73.56V63.144H14.8595V57.816H10.1555V51.48H4.05951V57.816H0.219506V63.144H4.05951V75.192C4.05951 79.368 6.31551 81.576 10.5875 81.576ZM38.4223 81V64.536C38.4223 60.024 35.9743 57.24 30.8863 57.24C27.0943 57.24 24.2623 59.064 22.7743 60.792V48.984H16.6303V81H22.7743V65.352C23.7823 64.008 25.6543 62.664 28.0543 62.664C30.6463 62.664 32.3263 63.672 32.3263 66.888V81H38.4223ZM52.97 81.576C56.57 81.576 60.218 80.472 62.522 78.36L59.786 74.328C58.298 75.768 55.61 76.584 53.642 76.584C49.706 76.584 47.402 74.232 46.97 71.4H64.202V69.96C64.202 62.424 59.546 57.24 52.586 57.24C45.578 57.24 40.586 62.664 40.586 69.384C40.586 76.824 45.914 81.576 52.97 81.576ZM58.346 67.176H46.922C47.162 64.872 48.794 62.232 52.586 62.232C56.618 62.232 58.154 64.968 58.346 67.176Z" fill="white"/>
<path d="M93.6534 81C99.7974 81 102.965 77.16 102.965 72.312C102.965 68.328 100.277 65.016 96.8214 64.488C99.8454 63.864 102.341 61.128 102.341 57.144C102.341 52.872 99.2214 48.984 93.1254 48.984H76.2774V81H93.6534ZM91.6374 61.704H83.0934V54.984H91.6374C93.9414 54.984 95.3814 56.376 95.3814 58.344C95.3814 60.408 93.9414 61.704 91.6374 61.704ZM91.9254 75H83.0934V67.704H91.9254C94.5654 67.704 96.0054 69.336 96.0054 71.352C96.0054 73.656 94.4694 75 91.9254 75ZM116.458 81.576C120.058 81.576 123.706 80.472 126.01 78.36L123.274 74.328C121.786 75.768 119.098 76.584 117.13 76.584C113.194 76.584 110.89 74.232 110.458 71.4H127.69V69.96C127.69 62.424 123.034 57.24 116.074 57.24C109.066 57.24 104.074 62.664 104.074 69.384C104.074 76.824 109.402 81.576 116.458 81.576ZM121.834 67.176H110.41C110.65 64.872 112.282 62.232 116.074 62.232C120.106 62.232 121.642 64.968 121.834 67.176ZM138.045 81.576C144.477 81.576 148.125 78.456 148.125 74.184C148.125 64.824 134.349 67.704 134.349 64.296C134.349 63 135.789 62.04 137.997 62.04C140.829 62.04 143.469 63.288 144.861 64.728L147.309 60.408C145.005 58.584 141.885 57.24 137.997 57.24C131.853 57.24 128.493 60.648 128.493 64.536C128.493 73.656 142.221 70.536 142.221 74.328C142.221 75.768 140.973 76.776 138.333 76.776C135.453 76.776 132.045 75.192 130.317 73.56L127.677 77.976C130.125 80.232 134.013 81.576 138.045 81.576ZM157.944 81.576C160.488 81.576 162.12 80.904 163.032 80.088L161.736 75.432C161.4 75.816 160.536 76.152 159.624 76.152C158.28 76.152 157.512 75.048 157.512 73.56V63.144H162.216V57.816H157.512V51.48H151.416V57.816H147.576V63.144H151.416V75.192C151.416 79.368 153.672 81.576 157.944 81.576ZM180.875 81V69.576H189.035C195.947 69.576 199.787 64.872 199.787 59.304C199.787 53.688 195.995 48.984 189.035 48.984H174.059V81H180.875ZM188.075 63.576H180.875V54.984H188.075C190.763 54.984 192.827 56.616 192.827 59.304C192.827 61.944 190.763 63.576 188.075 63.576ZM207.611 81V65.688C208.619 64.2 211.307 63.048 213.323 63.048C214.043 63.048 214.571 63.096 215.003 63.192V57.24C212.123 57.24 209.291 58.92 207.611 60.936V57.816H201.515V81H207.611ZM219.436 55.32C221.452 55.32 223.084 53.688 223.084 51.672C223.084 49.656 221.452 48.072 219.436 48.072C217.468 48.072 215.836 49.656 215.836 51.672C215.836 53.688 217.468 55.32 219.436 55.32ZM222.508 81V57.816H216.412V81H222.508ZM236.952 81.576C241.704 81.576 244.584 79.464 246.12 77.352L242.136 73.608C241.032 75.192 239.352 76.152 237.24 76.152C233.544 76.152 230.952 73.416 230.952 69.384C230.952 65.352 233.544 62.664 237.24 62.664C239.352 62.664 241.032 63.528 242.136 65.16L246.12 61.416C244.584 59.304 241.704 57.24 236.952 57.24C229.848 57.24 224.664 62.28 224.664 69.384C224.664 76.536 229.848 81.576 236.952 81.576ZM258.601 81.576C262.201 81.576 265.849 80.472 268.153 78.36L265.417 74.328C263.929 75.768 261.241 76.584 259.273 76.584C255.337 76.584 253.033 74.232 252.601 71.4H269.833V69.96C269.833 62.424 265.177 57.24 258.217 57.24C251.209 57.24 246.217 62.664 246.217 69.384C246.217 76.824 251.545 81.576 258.601 81.576ZM263.977 67.176H252.553C252.793 64.872 254.425 62.232 258.217 62.232C262.249 62.232 263.785 64.968 263.977 67.176Z" fill="#F15E61"/>
</svg>
