<svg xmlns="http://www.w3.org/2000/svg" width="100" height="100" viewBox="0 0 100 100">
  <g id="Uniswap_Logo_Round_Pink" data-name="Uniswap Logo Round Pink" transform="translate(-4391 -902)">
    <circle id="Ellipse_1310" data-name="Ellipse 1310" cx="50" cy="50" r="50" transform="translate(4391 902)" fill="#ff067a"/>
    <g id="uniswap-uni-logo" transform="translate(4401.778 902)">
      <path id="Path_7806" data-name="Path 7806" d="M64.988,43.765c-.929-.133-.973-.177-.531-.221a14.589,14.589,0,0,1,4.157.354c3.184.752,6.059,2.7,9.11,6.1l.8.929,1.15-.177a24.66,24.66,0,0,1,14.152,1.769,18.333,18.333,0,0,1,3.184,1.857,4.275,4.275,0,0,1,.31,1.238,7.5,7.5,0,0,1-.486,4.821,1.294,1.294,0,0,0-.133,1.415,1.332,1.332,0,0,0,1.194.752c1.061,0,2.167-1.681,2.7-4.024l.221-.929.4.442c2.255,2.521,4.024,6.015,4.29,8.491l.088.663-.4-.575a7.467,7.467,0,0,0-2.123-2.255c-1.5-1.017-3.1-1.327-7.3-1.548a29.9,29.9,0,0,1-8.093-1.238c-3.626-1.194-5.484-2.742-9.774-8.447a40.65,40.65,0,0,0-4.29-5.042A15,15,0,0,0,64.988,43.765Z" transform="translate(-35.802 -24.262)" fill="#fff"/>
      <path id="Path_7807" data-name="Path 7807" d="M132.967,51.055a9.564,9.564,0,0,1,.8-3.8,3.049,3.049,0,0,1,.4-.752c.044,0-.044.31-.177.663a8.447,8.447,0,0,0-.177,3.892c.31,1.99.442,2.255,2.565,4.422.973,1.017,2.123,2.3,2.565,2.83l.752.973-.752-.708a26.92,26.92,0,0,0-3.538-2.786c-.31-.177-.354-.177-.575.044-.177.177-.221.442-.221,1.725a9.475,9.475,0,0,1-.973,4.511c-.354.663-.4.531-.088-.221a6.445,6.445,0,0,0,.265-2.742c0-3.848-.442-4.776-3.14-6.324-.663-.4-1.813-.973-2.477-1.283A9.794,9.794,0,0,1,127,50.922a19.761,19.761,0,0,1,3.715,1.106c1.548.619,1.813.663,1.99.619C132.834,52.515,132.923,52.161,132.967,51.055Z" transform="translate(-70.834 -25.935)" fill="#fff"/>
      <path id="Path_7808" data-name="Path 7808" d="M66.54,58.537a15.626,15.626,0,0,1-2.786-9.508l.088-.929.442.088a10.378,10.378,0,0,1,2.83,1.061c1.769,1.061,2.565,2.521,3.317,6.147.221,1.061.531,2.3.663,2.7a15.965,15.965,0,0,0,1.769,3.184c.486.708.177,1.061-.929.973C70.255,62.075,68,60.527,66.54,58.537Z" transform="translate(-35.541 -26.828)" fill="#fff"/>
      <path id="Path_7809" data-name="Path 7809" d="M120.452,98.635C111.7,95.1,108.6,92.045,108.6,86.871c0-.752.044-1.371.044-1.371a8.309,8.309,0,0,1,.752.575c1.769,1.415,3.759,2.034,9.287,2.83a38.519,38.519,0,0,1,6.766,1.415c5.351,1.769,8.668,5.4,9.464,10.3a17.887,17.887,0,0,1-.265,5.528,11.086,11.086,0,0,1-1.415,3.184c-.044,0-.133-.221-.133-.575a7.2,7.2,0,0,0-2.565-5C128.678,102.173,126.29,100.979,120.452,98.635Z" transform="translate(-60.574 -47.688)" fill="#fff"/>
      <path id="Path_7810" data-name="Path 7810" d="M97.69,115.321a10.476,10.476,0,0,0-.442-1.857l-.221-.663.4.486a7.786,7.786,0,0,1,1.415,2.565,5.52,5.52,0,0,1,.31,2.477,5.642,5.642,0,0,1-.31,2.388,8,8,0,0,1-1.857,2.963c-1.592,1.636-3.671,2.521-6.634,2.919-.531.044-2.034.177-3.361.265A25.941,25.941,0,0,0,79.47,128.1c-.265.088-.531.177-.575.133a10.018,10.018,0,0,1,2.388-1.415c1.548-.752,3.14-1.15,6.634-1.769a30.3,30.3,0,0,0,3.936-.8C96.231,122.883,98.4,119.478,97.69,115.321Z" transform="translate(-44.004 -62.914)" fill="#fff"/>
      <path id="Path_7811" data-name="Path 7811" d="M129.086,125.007a10.321,10.321,0,0,1-.8-7.164c.088-.221.177-.442.265-.442a1.9,1.9,0,0,1,.619.31c.531.354,1.636.973,4.467,2.521,3.582,1.946,5.617,3.45,7.032,5.174a10.938,10.938,0,0,1,2.344,5.351,17.542,17.542,0,0,1-.221,5.263,13.036,13.036,0,0,1-6.413,8.491,6.147,6.147,0,0,1-.929.442,3.517,3.517,0,0,1,.4-.973,8.778,8.778,0,0,0,.4-6.855,28.161,28.161,0,0,0-3.538-6.368A42.012,42.012,0,0,1,129.086,125.007Z" transform="translate(-71.375 -65.48)" fill="#fff"/>
      <path id="Path_7812" data-name="Path 7812" d="M54.829,158.316a24.041,24.041,0,0,1,11.012-5.307,16.387,16.387,0,0,1,5.705.221,9.848,9.848,0,0,1,5.572,3.582c1.061,1.592,1.548,2.963,2.034,6.015.177,1.194.4,2.432.442,2.7a5.935,5.935,0,0,0,1.946,3.494c1.371,1.017,3.759,1.061,6.1.177a2.972,2.972,0,0,1,.752-.221,6.777,6.777,0,0,1-1.9,1.283,6.261,6.261,0,0,1-3.184.752c-2.123,0-3.936-1.106-5.4-3.317a24.863,24.863,0,0,1-1.459-2.919c-1.548-3.582-2.344-4.644-4.157-5.838a5.449,5.449,0,0,0-5.174-.486,3.33,3.33,0,0,0-1.15,5.174,4.522,4.522,0,0,0,2.521,1.327,2.7,2.7,0,0,0,3.052-2.7,2.117,2.117,0,0,0-1.459-2.167c-1.415-.619-2.963.088-2.919,1.459a1.216,1.216,0,0,0,.84,1.194c.354.177.354.177.088.133A1.64,1.64,0,0,1,67.521,160c1.238-1.238,3.848-.708,4.732,1.017a4.634,4.634,0,0,1,.088,3.007,4.136,4.136,0,0,1-5.042,2.388c-1.459-.4-2.079-.8-3.848-2.609-3.1-3.184-4.29-3.8-8.712-4.467l-.84-.133Z" transform="translate(-30.065 -85.256)" fill="#fff"/>
      <path id="Path_7813" data-name="Path 7813" d="M1.5,1.9c10.3,12.516,26.181,31.975,26.977,33.036.663.884.4,1.725-.708,2.344a6.767,6.767,0,0,1-2.521.708,3.191,3.191,0,0,1-2.123-.929c-.4-.4-2.123-2.919-6.015-8.978-2.963-4.644-5.484-8.491-5.528-8.535-.177-.088-.177-.088,5.219,9.553,3.405,6.059,4.511,8.226,4.511,8.491,0,.575-.177.884-.884,1.681-1.194,1.327-1.725,2.83-2.123,5.97-.442,3.494-1.636,5.97-5.042,10.172-1.99,2.477-2.3,2.919-2.786,3.936a7.479,7.479,0,0,0-.884,3.538,11.065,11.065,0,0,0,.575,4.334,14.773,14.773,0,0,0,2.123,4.157,10.29,10.29,0,0,1,1.636,3.228c0,.354.088.354,1.681,0,3.8-.884,6.943-2.388,8.668-4.246A4,4,0,0,0,25.6,67a3.607,3.607,0,0,0-.31-1.857c-.442-.973-1.283-1.769-3.1-3.007C19.81,60.5,18.793,59.173,18.528,57.4c-.221-1.5.044-2.521,1.371-5.307a15.863,15.863,0,0,0,1.946-6.988c.133-1.857.354-2.609.884-3.184a3.3,3.3,0,0,1,2.432-1.017,8.107,8.107,0,0,0,4.865-1.99,4.156,4.156,0,0,0,1.5-3.228l.044-1.017L31,34.053C28.921,31.665.13,0,0,0-.047,0,.661.84,1.5,1.9ZM15.078,64.789a1.826,1.826,0,0,0-.575-2.432c-.752-.486-1.9-.265-1.9.4a.451.451,0,0,0,.354.442c.4.221.442.442.133.929s-.31.929.088,1.238A1.265,1.265,0,0,0,15.078,64.789Z" fill="#fff" fill-rule="evenodd"/>
      <path id="Path_7814" data-name="Path 7814" d="M71.474,93.764a3.926,3.926,0,0,0-2.388,2.609,3.81,3.81,0,0,0,.221,2.388c.486.619.929.8,2.167.8,2.432,0,4.511-1.061,4.732-2.344.221-1.061-.708-2.521-1.99-3.184A4.5,4.5,0,0,0,71.474,93.764Zm2.83,2.211a1,1,0,0,0-.442-1.5c-1.194-.752-3.007-.133-3.007,1.017,0,.575.929,1.194,1.813,1.194A2.443,2.443,0,0,0,74.3,95.975Z" transform="translate(-38.485 -52.237)" fill="#fff" fill-rule="evenodd"/>
    </g>
  </g>
</svg>
